<?xml version="1.0" encoding="UTF-8"?>
<svg version="1.1" viewBox="0 0 219.33 219.61" xmlns="http://www.w3.org/2000/svg">
<g transform="translate(-1.1081 -4.1199)">
<path d="m97.5 222.87c-16.384-2.0466-34.953-9.2268-49.034-18.961-33.387-23.08-51.913-64.8-46.394-104.48 6.2301-44.793 37.944-80.631 81.89-92.539 10.921-2.9591 35.404-3.7181 47.349-1.4679 41.756 7.866 75.261 39.012 86.452 80.366 2.3671 8.747 2.6308 11.484 2.6695 27.706 0.0397 16.66-0.16307 18.745-2.7236 28-14.869 53.744-65.736 88.177-120.21 81.373zm-34-49.934c10.677-3.7141 18.154-7.2989 21.25-10.188 1.9573-1.8264 2.25-3.1026 2.25-9.8112 0-7.3324-0.1968-8.0064-4.0014-13.704-2.2007-3.2956-4.6932-7.953-5.5388-10.35s-2.6211-5.4891-3.9456-6.8719c-4.9413-5.1589-7.2619-16.88-4.4006-22.226 0.82113-1.5343 0.80823-3.9736-0.04913-9.2882-5.5126-34.172 5.6235-53.372 33.355-57.507 12.348-1.8412 25.359 0.78984 30.164 6.0998 0.94946 1.0491 2.3495 1.9075 3.1112 1.9075 2.7142 0 8.9978 3.9174 12.498 7.7915 5.3725 5.9467 7.3038 12.696 7.2139 25.209-0.0421 5.8548-0.76611 13.322-1.6366 16.878-1.3923 5.6879-1.3993 6.7651-0.0645 9.9596 2.6522 6.3476-0.64178 19.232-5.7289 22.409-1.0871 0.67889-1.9765 1.7439-1.9765 2.3667 0 2.2506-4.1364 10.412-7.5307 14.859-3.2317 4.2337-3.4693 5.0481-3.4693 11.89 0 10.858 1.7282 12.355 23.5 20.36 6.6 2.4266 14.881 5.9411 18.402 7.81 3.521 1.8688 6.7581 3.1776 7.1937 2.9085 0.43556-0.26919 3.5422-4.1394 6.9038-8.6005 30.874-40.974 27.234-96.498-8.6735-132.29-33.738-33.629-86.221-39.193-125.91-13.349-9.4045 6.1244-22.388 18.789-28.374 27.678-25.455 37.8-22.538 88.875 6.9926 122.42l4.0063 4.5514 7.7283-3.8932c4.2506-2.1412 11.778-5.302 16.728-7.024z" fill="#010101"/>
</g>
</svg>
