<?xml version="1.0" encoding="UTF-8"?>
<svg version="1.1" viewBox="0 0 481.33 441.77" xmlns="http://www.w3.org/2000/svg">
<g transform="translate(-179.08 -75.121)">
<path d="m352.46 515.12c-5.1239-2.3275-127.02-89.246-130.71-93.206-3.1003-3.3239-3.4825-6.426-1.1942-9.6931 1.9666-2.8077 126.54-91.896 131.94-94.357 2.2-1.0024 5.575-1.8226 7.5-1.8226 7.7891 0 16.804 6.9865 18.94 14.679 0.57694 2.0775 1.0515 13.115 1.0546 24.527l0.00558 20.75h64.935c70.005 0 72.176-0.1378 85.228-5.4099 10.353-4.1817 17.094-8.8447 26.984-18.664 8.6263-8.565 10.177-10.682 14.654-20.002 5.7934-12.062 7.8252-20.021 9.094-35.622 1.1053-13.59 3.5982-19.771 11.227-27.837 17.022-17.998 45.783-16.194 60.91 3.8206 6.1594 8.1495 7.4804 13.291 7.3772 28.715-0.26514 39.648-17.098 78.863-46.36 108-27.645 27.527-59.252 42.594-98.549 46.979-5.0721 0.56601-36.604 1.0079-72.25 1.0125l-63.25 0.0082v21.804c0 21.237-0.0648 21.934-2.4932 26.807-4.9426 9.9184-15.402 13.891-25.043 9.5121zm-145.56-180.96c-16.062-5.3044-26.817-19.575-27.72-36.781-0.74761-14.244 2.4061-34.84 7.9168-51.704 12.904-39.488 43.049-74.408 80.394-93.129 11.963-5.9971 27.681-11.539 39.5-13.926 15.276-3.086 28.665-3.621 90.606-3.621h62.394v-43.772l2.7844-5.3298c2.254-4.3147 3.7995-5.8602 8.1142-8.1142 6.1936-3.2356 10.933-3.4984 16.607-0.92093 5.2148 2.3691 127.12 89.317 130.84 93.326 2.3209 2.4962 2.7338 3.644 2.2258 6.1875-0.34308 1.7175-1.6254 4.0744-2.8496 5.2374-2.8292 2.6878-124.05 89.306-128.16 91.58-4.9955 2.761-11.044 3.2764-16.044 1.367-5.3446-2.0411-11.014-8.0707-12.45-13.241-0.59014-2.1252-1.0634-13.029-1.0665-24.571l-0.00558-20.75-65.25 0.0174c-70.153 0.0187-71.876 0.12675-84.715 5.3124-17.755 7.1715-33.479 21.754-42.331 39.257-5.1442 10.172-7.1343 18.487-8.6443 36.12-1.0713 12.51-3.771 18.992-11.167 26.812-7.7003 8.142-15.717 11.791-26.767 12.183-6.3644 0.22567-10.093-0.17835-14.218-1.5405z" fill="#232323"/>
</g>
</svg>
